<svg data-v-0dd9719b="" version="1.0" xmlns="http://www.w3.org/2000/svg" xmlns:xlink="http://www.w3.org/1999/xlink" width="100%" height="100%" viewBox="0 0 340.000000 250.000000" preserveAspectRatio="xMidYMid meet" color-interpolation-filters="sRGB" style="margin: auto;"> <rect data-v-0dd9719b="" x="0" y="0" width="100%" height="100%" fill="#fdfbf8" fill-opacity="1" class="background"></rect> <rect data-v-0dd9719b="" x="0" y="0" width="100%" height="100%" fill="url(#watermark)" fill-opacity="1" class="watermarklayer"></rect> <g data-v-0dd9719b="" fill="#4764a3" class="icon-text-wrapper icon-svg-group iconsvg" transform="translate(48.470001220703125,101.06875038146973)"><g class="iconsvg-imagesvg" transform="translate(0,4.306987762451172)"><g><rect fill="#4764a3" fill-opacity="0" stroke-width="2" x="0" y="0" width="60" height="39.248521639018264" class="image-rect"></rect> <svg filter="url(#colors1914506883)" x="0" y="0" width="60" height="39.248521639018264" filtersec="colorsf9437538873" class="image-svg-svg primary" style="overflow: visible;"><svg xmlns="http://www.w3.org/2000/svg" xmlns:xlink="http://www.w3.org/1999/xlink" version="1.1" x="0px" y="0px" viewBox="0 17 100 65.41400146484375" enable-background="new 0 0 100 100" xml:space="preserve"><path fill-rule="evenodd" clip-rule="evenodd" d="M82.415,46.854L82.415,46.854c0.29-1.278,0.442-2.61,0.442-3.975  c0-9.958-8.071-18.031-18.027-18.031c-7.244,0-13.489,4.271-16.357,10.435l0.002,0.002l-0.116,0.252l-0.055,0.126l-0.055,0.128  c-1.067,2.497-1.555,5.181-1.425,8.064l0.004,0.023v0.013v0.034l0.003,0.038l0.002,0.034l0.003,0.029  c0.026,0.385,0.058,0.764,0.107,1.143c-0.101-0.743-0.259-1.438-0.464-2.099l-0.049-0.152l-0.003-0.015l-0.05-0.137l-0.028-0.088  l-0.023-0.059l-0.053-0.147l-0.008-0.021l-0.049-0.124l-0.041-0.099l-0.018-0.046c-0.351-0.844-0.803-1.64-1.337-2.368l-0.048-0.065  l-0.041-0.055l-0.093-0.118l-0.011-0.015l-0.083-0.101l-0.063-0.082l-0.032-0.034l-0.096-0.116c-0.717-0.835-1.56-1.57-2.514-2.219  l0.003-0.006c-1.783-1.16-3.918-1.837-6.202-1.837c-4.93,0-9.131,3.13-10.715,7.515l-0.033,0.093l-0.031,0.09l-0.011,0.034  l-0.021,0.059c-0.374,1.13-0.578,2.336-0.578,3.595c0,0.629,0.052,1.246,0.151,1.851l-0.018-0.004l-0.048-0.01l-0.041-0.011h-0.008  l-0.051-0.015l-0.03-0.011L24.19,48.35l-0.046-0.013l-0.029-0.004l-0.02-0.002l-0.25-0.057v-0.002l-0.049-0.008  c-0.861-0.177-1.747-0.267-2.661-0.267c-0.572,0-1.138,0.031-1.691,0.103l-0.003,0.004l-0.62,0.092l-0.038,0.008  c-6.22,1.114-10.935,6.54-10.935,13.075c0,7.338,5.947,13.287,13.287,13.287v-0.002h0.112h13.437h33.863h12.569h0.907l-0.009-0.037  c5.676-0.459,10.136-5.203,10.136-10.998c0-4.346-2.516-8.107-6.17-9.904l-0.08-0.037l-0.004-0.008l-0.091-0.039  c-1.425-0.664-3.012-1.041-4.689-1.041c-0.288,0-0.583,0.012-0.869,0.031h-0.005l-0.029,0.004l-0.033,0.002l-0.034,0.004  l-0.033,0.002l-0.034,0.002l-0.029,0.006l0.053-0.084l0.031-0.047l0.021-0.037c0.646-1.045,1.191-2.157,1.618-3.332l0.023-0.057  l0.031-0.09l0.053-0.152l0.009-0.029C82.091,48.112,82.264,47.485,82.415,46.854L82.415,46.854z"></path><path d="M81.116,82.414l-0.931-0.025l-58.997,0.025C9.481,82.414,0,72.932,0,61.279  c0-10.318,7.376-19.016,17.385-20.801c2.588-7.82,9.896-13.164,18.257-13.164c2.569,0,5.112,0.516,7.46,1.504  C47.853,21.48,56.001,17,64.83,17c14.269,0,25.877,11.609,25.877,25.879c0,1.405-0.113,2.808-0.337,4.188  c5.902,3.319,9.63,9.605,9.63,16.462c0,10.035-7.845,18.318-17.861,18.855L81.116,82.414z M35.642,31.625  c-6.871,0-12.827,4.65-14.484,11.309l-0.363,1.46l-1.496,0.162c-8.544,0.929-14.987,8.119-14.987,16.723  c0,9.277,7.546,16.822,16.823,16.822l0.874-0.02l58.234-0.002l0.873,0.021l0.804-0.02c7.716-0.418,13.771-6.809,13.771-14.553  c0-5.742-3.388-10.963-8.628-13.306L85.44,49.5l0.4-1.729c0.368-1.593,0.555-3.24,0.555-4.891c0-11.892-9.675-21.568-21.565-21.568  c-7.937,0-15.213,4.344-18.991,11.336l-1.04,1.924l-1.908-1.066C40.691,32.275,38.184,31.625,35.642,31.625z"></path><path fill-rule="evenodd" clip-rule="evenodd" d="M80.049,52.551"></path></svg></svg> <defs><filter id="colors1914506883"><feColorMatrix type="matrix" values="0 0 0 0 0.2578125  0 0 0 0 0.171875  0 0 0 0 0.1640625  0 0 0 1 0" class="icon-fecolormatrix"></feColorMatrix></filter> <filter id="colorsf9437538873"><feColorMatrix type="matrix" values="0 0 0 0 0.99609375  0 0 0 0 0.99609375  0 0 0 0 0.99609375  0 0 0 1 0" class="icon-fecolormatrix"></feColorMatrix></filter> <filter id="colorsb6282171459"><feColorMatrix type="matrix" values="0 0 0 0 0  0 0 0 0 0  0 0 0 0 0  0 0 0 1 0" class="icon-fecolormatrix"></feColorMatrix></filter></defs></g></g> <g transform="translate(67,0)"><g data-gra="path-name" fill-rule="" class="tp-name iconsvg-namesvg" transform="translate(0,0)"><g transform="scale(1)"><g><path d="M16.17-28.97L16.17-28.97Q18.98-28.97 19.97-28.55L19.97-28.55Q19.97-28.55 19.83-28.41L19.83-28.41Q19.13-27.42 19.13-25.73L19.13-25.73 26.02-25.73Q29.25-25.73 29.81-25.88L29.81-25.88Q29.67-25.17 29.67-22.64L29.67-22.64 29.67-22.08Q29.67-18.98 29.81-18.42L29.81-18.42Q29.67-18.42 29.39-18.42L29.39-18.42Q27.7-18.56 26.16-18.56L26.16-18.56 19.13-18.56 19.13-16.03 28.83-16.03Q31.64-16.03 33.47-16.31L33.47-16.31Q33.75-16.31 33.89-16.31L33.89-16.31 33.89-13.22Q33.75-13.22 33.33-13.36L33.33-13.36Q31.36-13.64 28.97-13.64L28.97-13.64 7.45-13.64Q4.78-13.64 2.67-13.36L2.67-13.36Q2.25-13.22 2.11-13.22L2.11-13.22 2.11-16.31Q2.25-16.31 2.53-16.31L2.53-16.31Q4.5-16.03 7.45-16.03L7.45-16.03 16.45-16.03 16.45-18.56 9.84-18.56Q8.72-18.56 7.17-18.42L7.17-18.42Q6.33-18.42 6.05-18.42L6.05-18.42Q6.33-19.41 6.33-21.94L6.33-21.94 6.33-22.64Q6.33-25.03 6.05-25.88L6.05-25.88Q7.45-25.73 9.56-25.73L9.56-25.73 16.45-25.73Q16.45-27.7 16.17-28.83L16.17-28.83Q16.17-28.97 16.17-28.97ZM16.45-20.67L16.45-23.63 9.14-23.63 9.14-20.67 16.45-20.67ZM26.72-23.63L19.13-23.63 19.13-20.67 26.72-20.67 26.72-23.63ZM10.83-11.39L10.83-11.39 25.03-11.39Q27.84-11.39 29.11-11.67L29.11-11.67Q28.97-10.83 28.97-8.16L28.97-8.16 28.97-7.03Q28.97-4.36 29.25-3.09L29.25-3.09Q29.25-2.95 29.25-2.95L29.25-2.95 25.59-2.95Q25.88-4.36 25.88-7.31L25.88-7.31 25.88-9.14 9.56-9.14 9.56-7.03Q9.56-3.23 9.84-2.39L9.84-2.39 6.47-2.39Q6.47-2.39 6.47-2.67L6.47-2.67Q6.75-4.5 6.75-7.17L6.75-7.17 6.75-7.73Q6.75-10.97 6.61-11.53L6.61-11.53Q6.75-11.53 7.31-11.53L7.31-11.53Q9.14-11.39 10.83-11.39ZM15.89-8.02L15.89-8.02Q18.28-7.88 19.55-7.45L19.55-7.45Q19.55-7.17 19.27-6.89L19.27-6.89Q18.84-6.61 18.7-6.05L18.7-6.05Q18.28 1.97 4.36 3.38L4.36 3.38Q3.52 1.41 2.11 0.14L2.11 0.14Q16.59 0.84 15.89-8.02ZM18.56-1.69L19.97-4.08Q26.3-1.97 32.34 0.42L32.34 0.42 30.38 3.38Q25.17 0.56 18.56-1.69L18.56-1.69ZM45.28-28.41L45.28-28.41Q49.22-28.41 49.22-27.98L49.22-27.98Q49.22-27.84 49.08-27.42L49.08-27.42Q48.38-26.16 48.52-25.17L48.52-25.17Q48.52-11.11 47.39-6.47L47.39-6.47Q46.41-2.25 41.63 2.53L41.63 2.53Q40.22 0.98 38.11 0.84L38.11 0.84Q42.75-2.53 44.16-6.19L44.16-6.19Q45.56-9.7 45.56-17.58L45.56-17.58 45.56-24.47Q45.56-27.28 45.28-28.41ZM63.56-28.41L63.56-28.41Q67.5-28.13 67.64-27.98L67.64-27.98Q67.64-27.98 67.5-27.7L67.5-27.7Q66.94-26.58 66.94-24.89L66.94-24.89 66.94-3.38Q66.94 0.42 67.22 2.81L67.22 2.81 63.7 2.81Q63.84 1.69 63.98 0L63.98 0Q63.98-1.55 63.98-3.38L63.98-3.38 63.98-24.61Q63.98-26.72 63.56-28.41ZM53.86-27.56L53.86-27.56Q57.52-27.28 57.66-27.14L57.66-27.14Q57.66-27 57.52-26.58L57.52-26.58Q57.09-25.59 57.09-24.89L57.09-24.89 57.09-3.94Q57.09 0 57.38 1.69L57.38 1.69 53.86 1.69Q54.42-0.14 54.28-3.94L54.28-3.94 54.28-23.91Q54.28-25.73 53.86-27.56ZM40.78-20.95L40.78-20.95 44.02-20.53Q43.73-19.27 43.59-18.14L43.59-18.14Q42.89-12.66 42.19-8.58L42.19-8.58Q40.36-9.14 38.81-9L38.81-9Q40.78-14.91 40.78-20.95ZM49.08-19.41L51.61-19.97Q52.59-15.33 53.3-10.27L53.3-10.27 50.48-9.7Q50.48-14.48 49.08-19.41L49.08-19.41ZM58.22-19.41L60.89-19.97Q62.58-13.36 62.86-10.13L62.86-10.13 59.91-9.42Q59.63-14.77 58.22-19.41L58.22-19.41ZM90.28-28.27L93.8-29.25Q94.5-27.14 95.34-25.17L95.34-25.17 100.69-25.17Q102.38-25.17 104.48-25.45L104.48-25.45Q104.91-25.59 105.05-25.59L105.05-25.59 105.05-22.5Q103.36-22.78 100.69-22.78L100.69-22.78 96.89-22.78 96.89-19.97Q96.89-17.3 97.31-16.03L97.31-16.03 94.08-16.03Q94.36-16.73 94.36-19.97L94.36-19.97 94.36-22.78 91.69-22.78 91.69-19.97Q91.69-17.86 91.97-15.89L91.97-15.89 88.88-15.89Q89.16-17.86 89.16-19.83L89.16-19.83 89.16-22.78 86.48-22.78Q83.81-22.78 82.27-22.5L82.27-22.5 82.27-25.45Q84.94-25.17 86.34-25.17L86.34-25.17 92.53-25.17Q91.41-26.72 90.28-28.27L90.28-28.27ZM74.67-25.31L76.64-27.84Q78.47-26.3 81.42-23.91L81.42-23.91 79.17-21.38Q77.06-23.91 74.67-25.31L74.67-25.31ZM85.08-21.52L85.08-21.52 87.61-19.83Q84.38-16.17 82.41-14.91L82.41-14.91Q81.7-15.89 80.02-16.45L80.02-16.45Q83.39-19.13 85.08-21.52ZM98.16-18.98L100.27-21.23Q104.2-18.84 106.17-17.16L106.17-17.16 103.92-14.77Q101.81-16.73 98.16-18.98L98.16-18.98ZM72.84-16.88L74.81-19.55Q77.2-18.14 80.16-15.75L80.16-15.75 78.19-13.36Q75.38-15.89 72.84-16.88L72.84-16.88ZM83.53-12.52L83.53-15.33Q84.8-15.05 87.75-15.05L87.75-15.05 98.44-15.05Q99.84-15.05 101.25-15.19L101.25-15.19Q101.53-15.19 101.67-15.19L101.67-15.19Q101.53-13.92 101.53-12.8L101.53-12.8 101.53-10.55Q101.53-9.7 101.67-8.3L101.67-8.3Q101.67-8.02 101.67-8.02L101.67-8.02Q100.97-8.3 98.86-8.3L98.86-8.3 86.77-8.3 86.34-5.91 99.56-5.91Q101.39-5.91 103.08-6.19L103.08-6.19Q102.94-5.77 102.8-4.78L102.8-4.78Q101.95 1.27 100.55 2.11L100.55 2.11Q99 3.23 93.94 3.66L93.94 3.66Q93.52 1.41 92.53 0.14L92.53 0.14Q92.39 0 92.39 0L92.39 0Q96.75 0.42 97.73 0L97.73 0Q99-0.84 99.56-3.52L99.56-3.52 86.48-3.52Q83.53-3.52 83.11-3.38L83.11-3.38Q83.53-5.48 83.67-6.33L83.67-6.33 83.95-8.16Q84.23-9.28 84.23-10.69L84.23-10.69Q85.78-10.41 87.33-10.41L87.33-10.41 98.86-10.41 98.86-12.8 87.89-12.8Q84.8-12.8 83.53-12.52L83.53-12.52ZM77.77-11.95L77.77-11.95 80.72-10.27Q79.31-0.98 77.63 2.95L77.63 2.95 73.97 0.7Q76.64-3.38 77.77-11.95ZM114.89-23.77L114.89-27Q114.89-27.14 115.17-27L115.17-27Q116.86-26.72 120.09-26.72L120.09-26.72 131.91-26.72Q135.14-26.72 136.83-27L136.83-27Q137.11-27.14 137.11-27L137.11-27 137.11-23.77Q137.11-23.63 136.69-23.77L136.69-23.77Q135-24.05 131.91-24.05L131.91-24.05 120.09-24.05Q117-24.05 115.31-23.77L115.31-23.77Q114.89-23.63 114.89-23.77L114.89-23.77ZM110.39-14.34L110.39-17.58Q111.23-17.3 115.45-17.3L115.45-17.3 135.98-17.3Q140.34-17.3 141.33-17.58L141.33-17.58 141.33-14.34Q140.48-14.63 136.13-14.63L136.13-14.63 115.59-14.63Q111.23-14.63 110.39-14.34L110.39-14.34ZM127.83-12.66L127.83-12.66Q127.83-12.52 127.55-12.23L127.55-12.23Q126.42-11.53 125.16-10.27L125.16-10.27Q124.73-9.84 123.47-8.3L123.47-8.3Q118.97-2.81 117.56-1.97L117.56-1.97Q123.47-2.11 130.64-2.25L130.64-2.25Q133.45-2.39 134.02-2.39L134.02-2.39Q132.05-5.34 129.23-8.3L129.23-8.3 132.19-9.98Q135.14-5.91 140.34 0.42L140.34 0.42 137.11 2.39Q136.69 1.69 135.98 0.7L135.98 0.7Q135.56 0 135.42-0.14L135.42-0.14Q134.02-0.14 131.06 0L131.06 0Q118.13 0.14 114.05 1.27L114.05 1.27 112.78-2.11Q118.27-3.38 123.47-14.2L123.47-14.2Q127.69-12.94 127.83-12.66ZM166.08-28.41L166.08-28.41Q169.31-28.41 169.31-27.98L169.31-27.98Q169.31-27.84 169.31-27.56L169.31-27.56Q169.03-27 169.03-26.58L169.03-26.58 169.03-21.23 173.11-21.23 173.11-24.89Q173.11-26.3 172.97-26.72L172.97-26.72Q173.25-26.72 173.95-26.58L173.95-26.58Q176.34-26.58 176.2-26.16L176.2-26.16Q176.2-26.02 176.06-25.73L176.06-25.73Q175.78-25.17 175.78-23.91L175.78-23.91 175.78-22.22Q175.78-19.55 176.06-18.7L176.06-18.7Q173.11-18.98 169.88-18.98L169.88-18.98 164.81-18.98Q161.72-18.98 159.75-18.7L159.75-18.7Q160.03-20.25 160.03-22.78L160.03-22.78Q160.03-26.02 159.75-26.86L159.75-26.86Q162.84-26.86 162.98-26.44L162.98-26.44Q162.98-26.3 162.84-26.16L162.84-26.16Q162.7-25.59 162.7-25.03L162.7-25.03 162.7-21.23 166.36-21.23 166.36-26.02Q166.36-27.98 166.08-28.41ZM150.05-27L153-27.7Q153.7-26.44 154.97-22.64L154.97-22.64 151.73-21.8Q151.31-24.05 150.05-27L150.05-27ZM145.69-18.7L145.69-21.23Q145.97-21.23 147.09-21.23L147.09-21.23Q148.78-21.09 149.91-21.09L149.91-21.09 153.84-21.09Q156.94-21.23 158.48-21.38L158.48-21.38 158.48-18.7Q157.64-18.84 153.84-18.84L153.84-18.84 149.77-18.84Q146.81-18.84 145.69-18.7L145.69-18.7ZM154.41-17.3L154.41-17.3Q157.78-16.73 157.64-16.45L157.64-16.45Q157.64-16.31 157.5-16.03L157.5-16.03Q156.94-15.33 156.66-14.34L156.66-14.34Q155.53-8.86 154.41-4.78L154.41-4.78 157.78-5.48 157.64-3.09Q154.83-2.39 151.45-1.41L151.45-1.41Q147.38-0.14 146.39 0L146.39 0Q145.83-1.69 145.55-3.23L145.55-3.23 152.02-4.22Q153.84-11.67 154.41-17.3ZM147.8-16.31L150.47-16.59Q151.31-12.52 151.73-7.17L151.73-7.17 148.92-6.89Q148.5-12.09 147.8-16.31L147.8-16.31ZM178.17-16.59L178.17-16.59 178.17-13.92Q175.78-14.2 172.41-14.2L172.41-14.2 168.75-14.2Q168.47-13.08 167.77-10.97L167.77-10.97 171.98-10.97Q174.8-10.97 176.91-10.97L176.91-10.97Q176.63-8.72 176.63-6.61L176.63-6.61 176.63 0.42Q177.19 2.39 172.27 2.81L172.27 2.81Q172.13 0.98 171.28-0.14L171.28-0.14Q174.38 0.14 174.23-1.27L174.23-1.27 174.23-8.72 171-8.72 171-3.09Q171-1.69 171.14-0.42L171.14-0.42 168.61-0.42Q168.89-1.27 168.89-3.09L168.89-3.09 168.89-8.72 166.22-8.72 166.22-3.38Q166.22-0.42 166.36-0.28L166.36-0.28 163.83-0.28Q164.11-0.7 164.11-3.52L164.11-3.52 164.11-8.72 161.58-8.72 161.58-0.98Q161.58 2.11 161.72 2.25L161.72 2.25 158.91 2.25Q159.19 1.41 159.19-0.98L159.19-0.98 159.19-6.75Q159.19-9 158.91-11.11L158.91-11.11Q159.47-10.97 165.23-10.97L165.23-10.97Q165.52-11.53 165.8-13.5L165.8-13.5Q165.94-14.06 165.94-14.2L165.94-14.2 163.27-14.2Q162.14-14.2 160.31-14.06L160.31-14.06Q159.19-14.06 158.63-14.06L158.63-14.06 158.63-16.59Q160.45-16.45 163.41-16.45L163.41-16.45 172.41-16.45Q177.05-16.45 178.17-16.59Z" transform="translate(-2.109999895095825, 29.25)"></path></g> <!----> <!----> <!----> <!----> <!----> <!----> <!----></g></g> <g data-gra="path-slogan" fill-rule="" class="tp-slogan iconsvg-slogansvg" fill="#61b4ca" transform="translate(24.819442749023438,38.90999984741211)"><!----> <!----> <g transform="scale(1, 1)"><g transform="scale(1)"><path d="M7.31-3.61L4.69-3.61L4.69-4.59L8.44-4.59L8.44 0L7.69 0L7.41-1.08Q6.42 0.09 4.59 0.14L4.59 0.14Q2.86 0.14 1.92-0.75L1.92-0.75Q0.52-2.06 0.56-4.36L0.56-4.36Q0.89-8.63 4.64-8.81L4.64-8.81Q7.83-8.63 8.30-6L8.30-6L7.17-6Q6.70-7.78 4.59-7.83L4.59-7.83Q1.92-7.64 1.78-4.31L1.78-4.31Q1.78-0.75 4.64-0.75L4.64-0.75Q5.67-0.75 6.42-1.31L6.42-1.31Q7.36-2.06 7.31-3.61L7.31-3.61ZM15.89-3.19L15.89-8.58L17.06-8.58L17.06-3.05Q16.92 0.05 13.55 0.14L13.55 0.14Q10.41 0.05 10.27-2.86L10.27-2.86L10.27-8.58L11.44-8.58L11.44-3.19Q11.48-0.84 13.59-0.80L13.59-0.80Q15.89-0.84 15.89-3.19L15.89-3.19ZM19.03-8.58L20.20-8.58L20.20 0L19.03 0L19.03-8.58ZM23.02-1.03L28.31-1.03L28.31 0L21.56 0L21.56-0.94L26.81-7.59L21.94-7.59L21.94-8.58L28.31-8.58L28.31-7.59L23.02-1.03ZM30.61-5.06L35.11-5.06L35.11-8.58L36.28-8.58L36.28 0L35.11 0L35.11-3.98L30.61-3.98L30.61 0L29.44 0L29.44-8.58L30.61-8.58L30.61-5.06ZM44.86-4.27L44.86-4.27Q44.67-7.64 41.86-7.83L41.86-7.83Q39-7.69 38.86-4.27L38.86-4.27Q39-0.94 41.86-0.80L41.86-0.80Q44.67-0.98 44.86-4.27ZM46.03-4.27L46.03-4.27Q45.75 0 41.86 0.14L41.86 0.14Q37.92 0 37.64-4.27L37.64-4.27Q37.88-8.72 41.86-8.81L41.86-8.81Q45.75-8.67 46.03-4.27ZM53.06-3.19L53.06-8.58L54.23-8.58L54.23-3.05Q54.09 0.05 50.72 0.14L50.72 0.14Q47.58 0.05 47.44-2.86L47.44-2.86L47.44-8.58L48.61-8.58L48.61-3.19Q48.66-0.84 50.77-0.80L50.77-0.80Q53.06-0.84 53.06-3.19L53.06-3.19ZM62.58-7.64L60.52-7.64L60.52-4.97L62.58-4.97Q64.41-4.92 64.36-6.38L64.36-6.38Q64.36-7.64 62.58-7.64L62.58-7.64ZM63.05 0L59.34 0L59.34-8.58L63.14-8.58Q65.44-8.48 65.53-6.42L65.53-6.42Q65.53-5.16 64.41-4.64L64.41-4.64Q66-4.08 66-2.53L66-2.53Q65.86-0.09 63.05 0L63.05 0ZM62.77-3.98L60.52-3.98L60.52-0.98L63-0.98Q64.78-1.03 64.83-2.53L64.83-2.53Q64.83-3.98 62.77-3.98L62.77-3.98ZM72.98 0L72.14-2.48L68.67-2.48L67.78 0L66.61 0L69.84-8.58L71.16-8.58L74.25 0L72.98 0ZM70.41-7.31L69.05-3.52L71.72-3.52L70.45-7.31L70.41-7.31ZM82.22-8.58L78.98-3.47L78.98 0L77.81 0L77.81-3.47L74.58-8.58L75.94-8.58L78.38-4.45L80.86-8.58L82.22-8.58ZM93.75-6.05L93.75-6.05L92.63-6.05Q92.20-7.78 90.23-7.83L90.23-7.83Q87.52-7.69 87.42-4.36L87.42-4.36Q87.42-0.80 90.28-0.80L90.28-0.80Q92.25-0.84 92.72-3.19L92.72-3.19L93.84-3.19Q93.33 0.05 90.05 0.14L90.05 0.14Q86.30 0 86.20-4.31L86.20-4.31Q86.39-8.63 90.23-8.81L90.23-8.81Q93.28-8.72 93.75-6.05ZM95.20-8.58L96.38-8.58L96.38-1.03L100.73-1.03L100.73 0L95.20 0L95.20-8.58ZM108.66-4.27L108.66-4.27Q108.47-7.64 105.66-7.83L105.66-7.83Q102.80-7.69 102.66-4.27L102.66-4.27Q102.80-0.94 105.66-0.80L105.66-0.80Q108.47-0.98 108.66-4.27ZM109.83-4.27L109.83-4.27Q109.55 0 105.66 0.14L105.66 0.14Q101.72 0 101.44-4.27L101.44-4.27Q101.67-8.72 105.66-8.81L105.66-8.81Q109.55-8.67 109.83-4.27ZM116.86-3.19L116.86-8.58L118.03-8.58L118.03-3.05Q117.89 0.05 114.52 0.14L114.52 0.14Q111.38 0.05 111.23-2.86L111.23-2.86L111.23-8.58L112.41-8.58L112.41-3.19Q112.45-0.84 114.56-0.80L114.56-0.80Q116.86-0.84 116.86-3.19L116.86-3.19ZM123.33 0L119.86 0L119.86-8.58L123.38-8.58Q126.84-8.39 126.98-4.41L126.98-4.41Q126.80-0.09 123.33 0L123.33 0ZM123.19-7.64L121.03-7.64L121.03-0.98L123.28-0.98Q125.72-1.13 125.81-4.31L125.81-4.31Q125.77-7.55 123.19-7.64L123.19-7.64Z" transform="translate(-0.5609879032258065, 8.8125)"></path></g></g></g></g></g><defs v-gra="od"></defs></svg>